<svg width="86" height="80" viewBox="0 0 86 80" fill="none" xmlns="http://www.w3.org/2000/svg">
  <path d="M80.9 1L48.1 25.4L54.2 11L80.9 1Z" fill="#E17726" stroke="#E17726" stroke-linecap="round"
    stroke-linejoin="round" />
  <path d="M5.09998 1L37.7 25.6L31.9 11L5.09998 1Z" fill="#E27625" stroke="#E27625" stroke-linecap="round"
    stroke-linejoin="round" />
  <path d="M69.0999 57.5L60.2999 70.9L79.0999 76.1L84.3999 57.8L69.0999 57.5Z" fill="#E27625" stroke="#E27625"
    stroke-linecap="round" stroke-linejoin="round" />
  <path d="M1.69995 57.8L6.99995 76.1L25.7 70.9L17 57.5L1.69995 57.8Z" fill="#E27625" stroke="#E27625"
    stroke-linecap="round" stroke-linejoin="round" />
  <path d="M24.7 34.9001L19.5 42.8001L38 43.6001L37.4 23.6001L24.7 34.9001Z" fill="#E27625" stroke="#E27625"
    stroke-linecap="round" stroke-linejoin="round" />
  <path d="M61.4 34.8999L48.5 23.3999L48.1 43.5999L66.6 42.7999L61.4 34.8999Z" fill="#E27625" stroke="#E27625"
    stroke-linecap="round" stroke-linejoin="round" />
  <path d="M25.7 70.8999L36.9 65.4999L27.2 57.8999L25.7 70.8999Z" fill="#E27625" stroke="#E27625" stroke-linecap="round"
    stroke-linejoin="round" />
  <path d="M49.2 65.4999L60.2999 70.8999L58.7999 57.8999L49.2 65.4999Z" fill="#E27625" stroke="#E27625"
    stroke-linecap="round" stroke-linejoin="round" />
  <path d="M60.2999 70.9L49.2 65.5L50.1 72.7L50 75.8L60.2999 70.9Z" fill="#D5BFB2" stroke="#D5BFB2"
    stroke-linecap="round" stroke-linejoin="round" />
  <path d="M25.7 70.9L36.1 75.8L36 72.7L36.9 65.5L25.7 70.9Z" fill="#D5BFB2" stroke="#D5BFB2" stroke-linecap="round"
    stroke-linejoin="round" />
  <path d="M36.3 53.0999L27 50.3999L33.5 47.3999L36.3 53.0999Z" fill="#233447" stroke="#233447" stroke-linecap="round"
    stroke-linejoin="round" />
  <path d="M49.8 53.0999L52.5001 47.3999L59.1001 50.3999L49.8 53.0999Z" fill="#233447" stroke="#233447"
    stroke-linecap="round" stroke-linejoin="round" />
  <path d="M25.7 70.9L27.3 57.5L17 57.8L25.7 70.9Z" fill="#CC6228" stroke="#CC6228" stroke-linecap="round"
    stroke-linejoin="round" />
  <path d="M58.8 57.5L60.3 70.9L69.1001 57.8L58.8 57.5Z" fill="#CC6228" stroke="#CC6228" stroke-linecap="round"
    stroke-linejoin="round" />
  <path d="M66.6 42.8L48.1 43.6001L49.8 53.1001L52.5 47.4001L59.1 50.4001L66.6 42.8Z" fill="#CC6228" stroke="#CC6228"
    stroke-linecap="round" stroke-linejoin="round" />
  <path d="M27 50.4001L33.5 47.4001L36.3 53.1001L38 43.6001L19.5 42.8L27 50.4001Z" fill="#CC6228" stroke="#CC6228"
    stroke-linecap="round" stroke-linejoin="round" />
  <path d="M19.5 42.8L27.2 57.9001L27 50.4001L19.5 42.8Z" fill="#E27525" stroke="#E27525" stroke-linecap="round"
    stroke-linejoin="round" />
  <path d="M59.1001 50.4001L58.8 57.9001L66.6001 42.8L59.1001 50.4001Z" fill="#E27525" stroke="#E27525"
    stroke-linecap="round" stroke-linejoin="round" />
  <path d="M38.0001 43.6001L36.3 53.1001L38.4001 64.4001L38.9001 49.5001L38.0001 43.6001Z" fill="#E27525"
    stroke="#E27525" stroke-linecap="round" stroke-linejoin="round" />
  <path d="M48.1 43.6001L47.2 49.5001L47.6 64.4001L49.7999 53.1001L48.1 43.6001Z" fill="#E27525" stroke="#E27525"
    stroke-linecap="round" stroke-linejoin="round" />
  <path d="M49.8 53.0999L47.6 64.3999L49.2 65.4999L58.8 57.8999L59.1 50.3999L49.8 53.0999Z" fill="#F5841F"
    stroke="#F5841F" stroke-linecap="round" stroke-linejoin="round" />
  <path d="M27 50.3999L27.2 57.8999L36.9 65.4999L38.4 64.3999L36.3 53.0999L27 50.3999Z" fill="#F5841F" stroke="#F5841F"
    stroke-linecap="round" stroke-linejoin="round" />
  <path
    d="M50 75.7999L50.1 72.6999L49.2 71.9999H36.7999L36 72.6999L36.1 75.7999L25.7 70.8999L29.2999 73.8999L36.7 78.9999H49.2999L56.7 73.8999L60.2999 70.8999L50 75.7999Z"
    fill="#C0AC9D" stroke="#C0AC9D" stroke-linecap="round" stroke-linejoin="round" />
  <path d="M49.2 65.4999L47.6 64.3999H38.4L36.9 65.4999L36 72.6999L36.8 71.9999H49.2L50.1 72.6999L49.2 65.4999Z"
    fill="#161616" stroke="#161616" stroke-linecap="round" stroke-linejoin="round" />
  <path
    d="M82.2999 27L85.1 13.5L80.9 1L49.2 24.6L61.4 34.9L78.6 39.9L82.4 35.5L80.7999 34.3L83.4 31.9L81.4 30.3L83.9999 28.3L82.2999 27Z"
    fill="#763E1A" stroke="#763E1A" stroke-linecap="round" stroke-linejoin="round" />
  <path d="M1 13.5L3.8 27L2 28.3L4.6 30.3L2.6 31.9L5.3 34.3L3.6 35.5L7.4 39.9L24.7 34.9L36.9 24.6L5.1 1L1 13.5Z"
    fill="#763E1A" stroke="#763E1A" stroke-linecap="round" stroke-linejoin="round" />
  <path d="M78.6001 39.8999L61.4001 34.8999L66.6001 42.7999L58.8 57.8999L69.1001 57.7999H84.4001L78.6001 39.8999Z"
    fill="#F5841F" stroke="#F5841F" stroke-linecap="round" stroke-linejoin="round" />
  <path d="M24.7 34.8999L7.39996 39.8999L1.69995 57.7999H17L27.2 57.8999L19.5 42.7999L24.7 34.8999Z" fill="#F5841F"
    stroke="#F5841F" stroke-linecap="round" stroke-linejoin="round" />
  <path d="M48.1 43.6L49.2 24.6L54.2 11H31.9L36.9 24.6L38 43.6L38.4 49.6V64.4H47.6V49.6L48.1 43.6Z" fill="#F5841F"
    stroke="#F5841F" stroke-linecap="round" stroke-linejoin="round" />
</svg>