<svg width="66" height="66" viewBox="0 0 66 66" fill="none" xmlns="http://www.w3.org/2000/svg">
  <path
    d="M65.8789 17.2656C65.6836 17.0313 65.5859 16.7187 65.5859 16.4258C62.6953 11.3281 62.5195 5.09766 59.6289 0C51.4844 4.57031 45.918 12.7148 40.6055 20.1367C37.4023 24.6094 34.5313 29.1992 31.8945 34.0234C29.2383 38.8672 26.6602 43.7695 23.6914 48.4375C23.2617 49.1016 22.1484 49.4141 21.6797 48.5742C20.2734 45.9766 18.6914 43.457 16.875 41.1133C15.3125 39.1016 13.5352 37.3047 11.9336 35.332C9.45313 32.2656 6.79687 28.5937 3.35937 26.4648C2.10937 30.5664 0.644531 34.6289 0 38.8867C4.80469 41.9922 8.47656 46.4844 12.0117 50.918C16.1523 56.1133 20.4297 61.0742 25.0781 65.8203C28.0859 61.8945 30.1562 57.3242 32.6562 53.0664C35.6055 48.0469 39.043 43.418 42.6953 38.8867C46.3477 34.3555 50.5664 30.3516 54.8047 26.4063C56.7969 24.5508 59.1406 23.0273 61.2695 21.3281C62.8711 20.0391 64.4336 18.7109 65.8984 17.2852C65.8984 17.3047 65.8984 17.2852 65.8789 17.2656Z"
    fill="#00D373" />
</svg>